<svg xmlns="http://www.w3.org/2000/svg" xmlns:xlink="http://www.w3.org/1999/xlink" width="500" zoomAndPan="magnify" viewBox="0 0 375 112.499997" height="150" preserveAspectRatio="xMidYMid meet" version="1.0"><defs><g/><clipPath id="8954ae1529"><path d="M 23 4.328125 L 55 4.328125 L 55 91 L 23 91 Z M 23 4.328125 " clip-rule="nonzero"/></clipPath><clipPath id="e96b61000e"><path d="M 0.863281 21.09375 L 54.15625 21.09375 L 54.15625 107.371094 L 0.863281 107.371094 Z M 0.863281 21.09375 " clip-rule="nonzero"/></clipPath><clipPath id="dbeb99b64b"><path d="M 54 4.328125 L 85 4.328125 L 85 91 L 54 91 Z M 54 4.328125 " clip-rule="nonzero"/></clipPath><clipPath id="4b566c22d6"><path d="M 54 21.09375 L 107.324219 21.09375 L 107.324219 107.371094 L 54 107.371094 Z M 54 21.09375 " clip-rule="nonzero"/></clipPath><clipPath id="73ddf87877"><path d="M 51.15625 35.855469 L 57 35.855469 L 57 107.371094 L 51.15625 107.371094 Z M 51.15625 35.855469 " clip-rule="nonzero"/></clipPath></defs><g clip-path="url(#8954ae1529)"><path fill="#000000" d="M 23.703125 4.367188 C 23.703125 4.367188 50.148438 6.488281 54.09375 37.929688 L 54.09375 90.765625 C 54.09375 90.765625 42.566406 73.78125 23.703125 74.503906 L 23.703125 4.367188 " fill-opacity="1" fill-rule="nonzero"/></g><path fill="#ffffff" d="M 16.550781 9.277344 C 16.550781 9.277344 46.449219 9.277344 54.09375 37.929688 L 54.09375 95.675781 C 54.09375 95.675781 39.851562 78.695312 16.550781 79.417969 L 16.550781 9.277344 " fill-opacity="1" fill-rule="nonzero"/><path fill="#000000" d="M 9.910156 11.582031 C 9.910156 11.582031 44.570312 11.582031 54.09375 37.929688 L 54.09375 97.980469 C 54.09375 97.980469 37.332031 81 9.910156 81.722656 L 9.910156 11.582031 " fill-opacity="1" fill-rule="nonzero"/><path fill="#ffffff" d="M 5.175781 18.375 C 5.175781 18.375 36.988281 16.613281 54.09375 37.929688 L 54.09375 105.441406 C 54.09375 105.441406 35.535156 88.457031 5.175781 89.183594 L 5.175781 18.375 " fill-opacity="1" fill-rule="nonzero"/><g clip-path="url(#e96b61000e)"><path fill="#fa9600" d="M 54.097656 37.910156 L 54.09375 107.65625 C 54.09375 107.65625 33.898438 90.671875 0.863281 91.394531 L 0.863281 21.253906 C 0.863281 21.253906 5.0625 21.300781 11.253906 21.984375 C 13.75 22.261719 16.566406 22.640625 19.5625 23.164062 C 31.175781 25.183594 45.480469 29.347656 54.097656 37.910156 " fill-opacity="1" fill-rule="nonzero"/></g><path fill="#000000" d="M 19.5625 23.164062 L 19.5625 53.242188 L 15.410156 48.835938 L 11.253906 50.765625 L 11.253906 21.984375 C 13.75 22.261719 16.566406 22.640625 19.5625 23.164062 " fill-opacity="1" fill-rule="nonzero"/><g clip-path="url(#dbeb99b64b)"><path fill="#000000" d="M 84.480469 4.328125 C 84.480469 4.328125 58.039062 6.449219 54.09375 37.890625 L 54.09375 90.726562 C 54.09375 90.726562 65.621094 73.742188 84.480469 74.46875 L 84.480469 4.328125 " fill-opacity="1" fill-rule="nonzero"/></g><path fill="#ffffff" d="M 91.636719 9.242188 C 91.636719 9.242188 61.738281 9.242188 54.09375 37.890625 L 54.09375 95.640625 C 54.09375 95.640625 68.335938 78.65625 91.636719 79.378906 L 91.636719 9.242188 " fill-opacity="1" fill-rule="nonzero"/><path fill="#000000" d="M 98.277344 11.546875 C 98.277344 11.546875 63.617188 11.546875 54.09375 37.890625 L 54.09375 97.945312 C 54.09375 97.945312 70.855469 80.960938 98.277344 81.683594 L 98.277344 11.546875 " fill-opacity="1" fill-rule="nonzero"/><path fill="#ffffff" d="M 103.007812 18.335938 C 103.007812 18.335938 71.199219 16.578125 54.09375 37.890625 L 54.09375 105.402344 C 54.09375 105.402344 72.652344 88.417969 103.007812 89.144531 L 103.007812 18.335938 " fill-opacity="1" fill-rule="nonzero"/><g clip-path="url(#4b566c22d6)"><path fill="#000000" d="M 107.324219 21.21875 C 107.324219 21.21875 70.449219 21.613281 54.089844 37.871094 L 54.09375 107.617188 C 54.09375 107.617188 74.289062 90.632812 107.324219 91.359375 L 107.324219 21.21875 " fill-opacity="1" fill-rule="nonzero"/></g><g clip-path="url(#73ddf87877)"><path fill="#ffffff" d="M 55.316406 107.65625 L 52.871094 107.65625 C 51.972656 107.65625 51.242188 106.925781 51.242188 106.027344 L 51.242188 35.878906 L 56.945312 35.878906 L 56.945312 106.027344 C 56.945312 106.925781 56.214844 107.65625 55.316406 107.65625 " fill-opacity="1" fill-rule="nonzero"/></g><path fill="#ffffff" d="M 56.933594 35.902344 L 57.351562 34.996094 L 56.132812 35.878906 Z M 56.933594 35.902344 " fill-opacity="1" fill-rule="nonzero"/><path fill="#ffffff" d="M 51.253906 35.902344 L 50.832031 34.996094 L 52.054688 35.878906 Z M 51.253906 35.902344 " fill-opacity="1" fill-rule="nonzero"/><path fill="#ffffff" d="M 96.886719 47.066406 L 96.886719 49.234375 C 84.03125 50.421875 71.875 55.085938 70.101562 55.792969 L 70.101562 53.476562 C 73.53125 52.175781 84.925781 48.136719 96.886719 47.066406 " fill-opacity="1" fill-rule="nonzero"/><path fill="#ffffff" d="M 96.886719 53.242188 L 96.886719 55.410156 C 84.03125 56.601562 71.875 61.265625 70.101562 61.96875 L 70.101562 59.652344 C 73.53125 58.351562 84.925781 54.3125 96.886719 53.242188 " fill-opacity="1" fill-rule="nonzero"/><path fill="#ffffff" d="M 96.886719 59.449219 L 96.886719 61.617188 C 84.03125 62.804688 71.875 67.46875 70.101562 68.171875 L 70.101562 65.859375 C 73.53125 64.558594 84.925781 60.519531 96.886719 59.449219 " fill-opacity="1" fill-rule="nonzero"/><g fill="#000000" fill-opacity="1"><g transform="translate(193.558203, 93.795549)"><g/></g></g><g fill="#000000" fill-opacity="1"><g transform="translate(212.21357, 93.795549)"><g><path d="M 2.578125 0 L 2.578125 -1.046875 C 3.453125 -1.265625 4.035156 -1.515625 4.328125 -1.796875 C 4.628906 -2.078125 4.828125 -2.472656 4.921875 -2.984375 C 5.015625 -3.492188 5.0625 -4.269531 5.0625 -5.3125 L 5.0625 -23.71875 C 5.0625 -24.695312 5.023438 -25.410156 4.953125 -25.859375 C 4.878906 -26.304688 4.757812 -26.648438 4.59375 -26.890625 C 4.4375 -27.140625 4.222656 -27.335938 3.953125 -27.484375 C 3.679688 -27.640625 3.222656 -27.8125 2.578125 -28 L 2.578125 -29.03125 L 14.203125 -29.03125 C 16.460938 -29.03125 18.273438 -28.789062 19.640625 -28.3125 C 21.015625 -27.832031 22.035156 -27.117188 22.703125 -26.171875 C 23.367188 -25.234375 23.703125 -24.019531 23.703125 -22.53125 C 23.703125 -21.289062 23.460938 -20.21875 22.984375 -19.3125 C 22.503906 -18.40625 21.878906 -17.65625 21.109375 -17.0625 C 20.347656 -16.46875 19.367188 -15.914062 18.171875 -15.40625 L 18.171875 -15.203125 C 20.097656 -14.628906 21.554688 -13.734375 22.546875 -12.515625 C 23.535156 -11.304688 24.03125 -9.863281 24.03125 -8.1875 C 24.03125 -6.257812 23.601562 -4.6875 22.75 -3.46875 C 21.894531 -2.25 20.691406 -1.363281 19.140625 -0.8125 C 17.597656 -0.269531 15.726562 0 13.53125 0 Z M 12.765625 -16.015625 C 14.921875 -16.015625 16.566406 -16.535156 17.703125 -17.578125 C 18.847656 -18.617188 19.421875 -20.132812 19.421875 -22.125 C 19.421875 -23.101562 19.257812 -23.914062 18.9375 -24.5625 C 18.625 -25.207031 18.1875 -25.71875 17.625 -26.09375 C 17.0625 -26.476562 16.394531 -26.75 15.625 -26.90625 C 14.863281 -27.070312 14.035156 -27.15625 13.140625 -27.15625 C 12.609375 -27.15625 11.898438 -27.140625 11.015625 -27.109375 C 10.140625 -27.085938 9.484375 -27.0625 9.046875 -27.03125 L 9.046875 -16.015625 Z M 9.046875 -2.015625 C 10.078125 -1.921875 11.226562 -1.875 12.5 -1.875 C 14.363281 -1.875 15.804688 -2.109375 16.828125 -2.578125 C 17.859375 -3.046875 18.601562 -3.734375 19.0625 -4.640625 C 19.53125 -5.554688 19.765625 -6.703125 19.765625 -8.078125 C 19.765625 -9.453125 19.507812 -10.585938 19 -11.484375 C 18.5 -12.378906 17.722656 -13.046875 16.671875 -13.484375 C 15.628906 -13.921875 14.1875 -14.140625 12.34375 -14.140625 L 9.046875 -14.140625 Z M 9.046875 -2.015625 "/></g></g></g><g fill="#000000" fill-opacity="1"><g transform="translate(247.899703, 93.795549)"><g><path d="M 13.90625 0.34375 C 12.207031 0.34375 10.660156 0.0625 9.265625 -0.5 C 7.867188 -1.0625 6.671875 -1.929688 5.671875 -3.109375 C 4.671875 -4.296875 3.894531 -5.8125 3.34375 -7.65625 C 2.800781 -9.5 2.53125 -11.703125 2.53125 -14.265625 C 2.53125 -17.429688 3.007812 -20.148438 3.96875 -22.421875 C 4.9375 -24.691406 6.316406 -26.414062 8.109375 -27.59375 C 9.910156 -28.78125 11.992188 -29.375 14.359375 -29.375 C 16.878906 -29.375 19 -28.816406 20.71875 -27.703125 C 22.445312 -26.585938 23.742188 -24.945312 24.609375 -22.78125 C 25.484375 -20.625 25.921875 -17.992188 25.921875 -14.890625 C 25.921875 -11.566406 25.425781 -8.765625 24.4375 -6.484375 C 23.445312 -4.203125 22.046875 -2.492188 20.234375 -1.359375 C 18.429688 -0.222656 16.320312 0.34375 13.90625 0.34375 Z M 6.90625 -14.875 C 6.90625 -10.519531 7.539062 -7.207031 8.8125 -4.9375 C 10.082031 -2.664062 11.9375 -1.53125 14.375 -1.53125 C 15.925781 -1.53125 17.238281 -2.019531 18.3125 -3 C 19.394531 -3.988281 20.203125 -5.429688 20.734375 -7.328125 C 21.273438 -9.234375 21.546875 -11.457031 21.546875 -14 C 21.546875 -17.09375 21.226562 -19.65625 20.59375 -21.6875 C 19.96875 -23.71875 19.109375 -25.191406 18.015625 -26.109375 C 16.921875 -27.035156 15.648438 -27.5 14.203125 -27.5 C 12.929688 -27.5 11.835938 -27.203125 10.921875 -26.609375 C 10.003906 -26.015625 9.242188 -25.164062 8.640625 -24.0625 C 8.046875 -22.96875 7.609375 -21.640625 7.328125 -20.078125 C 7.046875 -18.515625 6.90625 -16.78125 6.90625 -14.875 Z M 6.90625 -14.875 "/></g></g></g><g fill="#000000" fill-opacity="1"><g transform="translate(285.414702, 93.795549)"><g><path d="M 13.90625 0.34375 C 12.207031 0.34375 10.660156 0.0625 9.265625 -0.5 C 7.867188 -1.0625 6.671875 -1.929688 5.671875 -3.109375 C 4.671875 -4.296875 3.894531 -5.8125 3.34375 -7.65625 C 2.800781 -9.5 2.53125 -11.703125 2.53125 -14.265625 C 2.53125 -17.429688 3.007812 -20.148438 3.96875 -22.421875 C 4.9375 -24.691406 6.316406 -26.414062 8.109375 -27.59375 C 9.910156 -28.78125 11.992188 -29.375 14.359375 -29.375 C 16.878906 -29.375 19 -28.816406 20.71875 -27.703125 C 22.445312 -26.585938 23.742188 -24.945312 24.609375 -22.78125 C 25.484375 -20.625 25.921875 -17.992188 25.921875 -14.890625 C 25.921875 -11.566406 25.425781 -8.765625 24.4375 -6.484375 C 23.445312 -4.203125 22.046875 -2.492188 20.234375 -1.359375 C 18.429688 -0.222656 16.320312 0.34375 13.90625 0.34375 Z M 6.90625 -14.875 C 6.90625 -10.519531 7.539062 -7.207031 8.8125 -4.9375 C 10.082031 -2.664062 11.9375 -1.53125 14.375 -1.53125 C 15.925781 -1.53125 17.238281 -2.019531 18.3125 -3 C 19.394531 -3.988281 20.203125 -5.429688 20.734375 -7.328125 C 21.273438 -9.234375 21.546875 -11.457031 21.546875 -14 C 21.546875 -17.09375 21.226562 -19.65625 20.59375 -21.6875 C 19.96875 -23.71875 19.109375 -25.191406 18.015625 -26.109375 C 16.921875 -27.035156 15.648438 -27.5 14.203125 -27.5 C 12.929688 -27.5 11.835938 -27.203125 10.921875 -26.609375 C 10.003906 -26.015625 9.242188 -25.164062 8.640625 -24.0625 C 8.046875 -22.96875 7.609375 -21.640625 7.328125 -20.078125 C 7.046875 -18.515625 6.90625 -16.78125 6.90625 -14.875 Z M 6.90625 -14.875 "/></g></g></g><g fill="#000000" fill-opacity="1"><g transform="translate(322.929704, 93.795549)"><g><path d="M 9.015625 -15.90625 L 9.65625 -15.90625 C 10.195312 -15.90625 10.691406 -15.988281 11.140625 -16.15625 C 11.585938 -16.332031 12.085938 -16.65625 12.640625 -17.125 C 13.191406 -17.59375 14.035156 -18.460938 15.171875 -19.734375 C 16.523438 -21.253906 17.453125 -22.351562 17.953125 -23.03125 C 18.578125 -23.84375 18.992188 -24.523438 19.203125 -25.078125 C 19.378906 -25.484375 19.46875 -25.878906 19.46875 -26.265625 C 19.46875 -26.835938 19.300781 -27.253906 18.96875 -27.515625 C 18.644531 -27.773438 18.203125 -27.9375 17.640625 -28 L 17.640625 -29.03125 L 26.90625 -29.03125 L 26.90625 -28 C 26.457031 -27.894531 26.007812 -27.71875 25.5625 -27.46875 C 25.125 -27.21875 24.675781 -26.875 24.21875 -26.4375 C 23.757812 -26.007812 23.082031 -25.300781 22.1875 -24.3125 L 15.03125 -16.265625 L 22.78125 -5.015625 C 23.601562 -3.828125 24.25 -2.992188 24.71875 -2.515625 C 25.1875 -2.046875 25.628906 -1.703125 26.046875 -1.484375 C 26.472656 -1.265625 26.929688 -1.117188 27.421875 -1.046875 L 27.421875 0 L 18.03125 0 L 18.03125 -1.046875 C 18.5625 -1.085938 18.945312 -1.1875 19.1875 -1.34375 C 19.425781 -1.5 19.546875 -1.734375 19.546875 -2.046875 C 19.546875 -2.296875 19.460938 -2.601562 19.296875 -2.96875 C 19.140625 -3.332031 18.882812 -3.769531 18.53125 -4.28125 L 13.578125 -11.65625 C 12.992188 -12.53125 12.566406 -13.109375 12.296875 -13.390625 C 12.023438 -13.679688 11.734375 -13.894531 11.421875 -14.03125 C 11.109375 -14.164062 10.691406 -14.234375 10.171875 -14.234375 L 9.046875 -14.234375 L 9.046875 -5.3125 C 9.046875 -4.363281 9.078125 -3.671875 9.140625 -3.234375 C 9.203125 -2.796875 9.304688 -2.445312 9.453125 -2.1875 C 9.597656 -1.9375 9.816406 -1.722656 10.109375 -1.546875 C 10.398438 -1.378906 10.875 -1.210938 11.53125 -1.046875 L 11.53125 0 L 2.578125 0 L 2.578125 -1.046875 C 3.453125 -1.265625 4.035156 -1.515625 4.328125 -1.796875 C 4.628906 -2.078125 4.828125 -2.472656 4.921875 -2.984375 C 5.015625 -3.492188 5.0625 -4.269531 5.0625 -5.3125 L 5.0625 -23.71875 C 5.0625 -24.695312 5.023438 -25.410156 4.953125 -25.859375 C 4.878906 -26.304688 4.757812 -26.648438 4.59375 -26.890625 C 4.4375 -27.140625 4.222656 -27.335938 3.953125 -27.484375 C 3.679688 -27.640625 3.222656 -27.8125 2.578125 -28 L 2.578125 -29.03125 L 11.53125 -29.03125 L 11.53125 -28 C 10.90625 -27.84375 10.453125 -27.6875 10.171875 -27.53125 C 9.898438 -27.375 9.679688 -27.175781 9.515625 -26.9375 C 9.359375 -26.707031 9.238281 -26.359375 9.15625 -25.890625 C 9.082031 -25.421875 9.046875 -24.695312 9.046875 -23.71875 Z M 9.015625 -15.90625 "/></g></g></g><g fill="#000000" fill-opacity="1"><g transform="translate(144.263744, 51.67581)"><g><path d="M 15.71875 0.390625 C 13.789062 0.390625 12.035156 0.0703125 10.453125 -0.5625 C 8.878906 -1.195312 7.523438 -2.179688 6.390625 -3.515625 C 5.265625 -4.859375 4.394531 -6.566406 3.78125 -8.640625 C 3.164062 -10.722656 2.859375 -13.21875 2.859375 -16.125 C 2.859375 -19.695312 3.398438 -22.765625 4.484375 -25.328125 C 5.578125 -27.890625 7.132812 -29.835938 9.15625 -31.171875 C 11.1875 -32.503906 13.539062 -33.171875 16.21875 -33.171875 C 19.070312 -33.171875 21.46875 -32.539062 23.40625 -31.28125 C 25.351562 -30.03125 26.816406 -28.179688 27.796875 -25.734375 C 28.785156 -23.296875 29.28125 -20.320312 29.28125 -16.8125 C 29.28125 -13.070312 28.71875 -9.910156 27.59375 -7.328125 C 26.476562 -4.742188 24.898438 -2.8125 22.859375 -1.53125 C 20.816406 -0.25 18.4375 0.390625 15.71875 0.390625 Z M 7.8125 -16.796875 C 7.8125 -11.878906 8.523438 -8.140625 9.953125 -5.578125 C 11.390625 -3.015625 13.484375 -1.734375 16.234375 -1.734375 C 17.984375 -1.734375 19.46875 -2.285156 20.6875 -3.390625 C 21.90625 -4.503906 22.816406 -6.132812 23.421875 -8.28125 C 24.035156 -10.4375 24.34375 -12.945312 24.34375 -15.8125 C 24.34375 -19.300781 23.984375 -22.191406 23.265625 -24.484375 C 22.554688 -26.785156 21.582031 -28.457031 20.34375 -29.5 C 19.113281 -30.539062 17.679688 -31.0625 16.046875 -31.0625 C 14.609375 -31.0625 13.367188 -30.722656 12.328125 -30.046875 C 11.296875 -29.378906 10.441406 -28.425781 9.765625 -27.1875 C 9.085938 -25.945312 8.59375 -24.441406 8.28125 -22.671875 C 7.96875 -20.910156 7.8125 -18.953125 7.8125 -16.796875 Z M 7.8125 -16.796875 "/></g></g></g><g fill="#000000" fill-opacity="1"><g transform="translate(186.633812, 51.67581)"><g><path d="M 10.203125 -6.078125 C 10.203125 -5.128906 10.253906 -4.375 10.359375 -3.8125 C 10.460938 -3.257812 10.625 -2.816406 10.84375 -2.484375 C 11.0625 -2.160156 11.351562 -1.90625 11.71875 -1.71875 C 12.09375 -1.53125 12.671875 -1.347656 13.453125 -1.171875 L 13.453125 0 L 2.90625 0 L 2.90625 -1.171875 C 3.894531 -1.429688 4.554688 -1.71875 4.890625 -2.03125 C 5.234375 -2.34375 5.457031 -2.785156 5.5625 -3.359375 C 5.664062 -3.941406 5.71875 -4.820312 5.71875 -6 L 5.71875 -26.78125 C 5.71875 -27.894531 5.675781 -28.703125 5.59375 -29.203125 C 5.519531 -29.703125 5.390625 -30.09375 5.203125 -30.375 C 5.015625 -30.65625 4.769531 -30.878906 4.46875 -31.046875 C 4.164062 -31.210938 3.644531 -31.398438 2.90625 -31.609375 L 2.90625 -32.796875 L 14.828125 -32.796875 C 18.566406 -32.796875 21.351562 -32.078125 23.1875 -30.640625 C 25.03125 -29.210938 25.953125 -27.03125 25.953125 -24.09375 C 25.953125 -22.425781 25.660156 -20.925781 25.078125 -19.59375 C 24.503906 -18.269531 23.6875 -17.179688 22.625 -16.328125 C 21.570312 -15.484375 20.320312 -14.875 18.875 -14.5 C 17.4375 -14.132812 15.925781 -13.953125 14.34375 -13.953125 C 12.5625 -13.953125 11.179688 -13.984375 10.203125 -14.046875 Z M 10.203125 -16.046875 L 13 -16.046875 C 14.8125 -16.046875 16.304688 -16.28125 17.484375 -16.75 C 18.660156 -17.226562 19.5625 -18.015625 20.1875 -19.109375 C 20.8125 -20.203125 21.125 -21.65625 21.125 -23.46875 C 21.125 -24.84375 20.9375 -25.988281 20.5625 -26.90625 C 20.195312 -27.832031 19.6875 -28.578125 19.03125 -29.140625 C 18.382812 -29.703125 17.613281 -30.097656 16.71875 -30.328125 C 15.820312 -30.566406 14.847656 -30.6875 13.796875 -30.6875 C 12.203125 -30.6875 11.003906 -30.648438 10.203125 -30.578125 Z M 10.203125 -16.046875 "/></g></g></g><g fill="#000000" fill-opacity="1"><g transform="translate(224.800836, 51.67581)"><g><path d="M 25.375 -32.796875 L 25.375 -25.53125 L 23.015625 -25.53125 C 22.773438 -26.320312 22.523438 -27.015625 22.265625 -27.609375 C 22.015625 -28.203125 21.75 -28.695312 21.46875 -29.09375 C 21.195312 -29.488281 20.894531 -29.804688 20.5625 -30.046875 C 20.238281 -30.296875 19.851562 -30.460938 19.40625 -30.546875 C 18.957031 -30.640625 18.421875 -30.6875 17.796875 -30.6875 L 10.203125 -30.6875 L 10.203125 -18.09375 L 15.359375 -18.09375 C 16.054688 -18.09375 16.601562 -18.191406 17 -18.390625 C 17.40625 -18.585938 17.738281 -18.925781 18 -19.40625 C 18.269531 -19.894531 18.523438 -20.648438 18.765625 -21.671875 L 21.015625 -21.671875 L 21.015625 -12.4375 L 18.765625 -12.4375 C 18.535156 -13.40625 18.285156 -14.132812 18.015625 -14.625 C 17.742188 -15.113281 17.421875 -15.460938 17.046875 -15.671875 C 16.671875 -15.878906 16.109375 -15.984375 15.359375 -15.984375 L 10.203125 -15.984375 L 10.203125 -2.109375 L 17.6875 -2.109375 C 18.46875 -2.109375 19.101562 -2.175781 19.59375 -2.3125 C 20.082031 -2.445312 20.5 -2.675781 20.84375 -3 C 21.195312 -3.332031 21.507812 -3.765625 21.78125 -4.296875 C 22.0625 -4.828125 22.289062 -5.375 22.46875 -5.9375 C 22.65625 -6.507812 22.910156 -7.34375 23.234375 -8.4375 L 25.609375 -8.4375 L 25.15625 0 L 2.90625 0 L 2.90625 -1.171875 C 3.894531 -1.429688 4.554688 -1.71875 4.890625 -2.03125 C 5.234375 -2.34375 5.457031 -2.785156 5.5625 -3.359375 C 5.664062 -3.941406 5.71875 -4.820312 5.71875 -6 L 5.71875 -26.78125 C 5.71875 -27.894531 5.675781 -28.703125 5.59375 -29.203125 C 5.519531 -29.703125 5.390625 -30.09375 5.203125 -30.375 C 5.015625 -30.65625 4.769531 -30.878906 4.46875 -31.046875 C 4.164062 -31.210938 3.644531 -31.398438 2.90625 -31.609375 L 2.90625 -32.796875 Z M 25.375 -32.796875 "/></g></g></g><g fill="#000000" fill-opacity="1"><g transform="translate(263.328123, 51.67581)"><g><path d="M 22.203125 -13 C 22.773438 -12.039062 23.253906 -11.195312 23.640625 -10.46875 C 24.035156 -9.75 24.441406 -8.941406 24.859375 -8.046875 L 25.171875 -8.046875 C 25.097656 -9.023438 25.023438 -10.96875 24.953125 -13.875 C 24.890625 -16.78125 24.859375 -19.40625 24.859375 -21.75 L 24.859375 -26.78125 C 24.859375 -27.894531 24.828125 -28.707031 24.765625 -29.21875 C 24.703125 -29.726562 24.585938 -30.117188 24.421875 -30.390625 C 24.253906 -30.660156 24.019531 -30.878906 23.71875 -31.046875 C 23.425781 -31.210938 22.910156 -31.398438 22.171875 -31.609375 L 22.171875 -32.796875 L 30.828125 -32.796875 L 30.828125 -31.609375 C 30.109375 -31.421875 29.597656 -31.242188 29.296875 -31.078125 C 29.003906 -30.921875 28.765625 -30.710938 28.578125 -30.453125 C 28.390625 -30.203125 28.25 -29.820312 28.15625 -29.3125 C 28.0625 -28.800781 28.015625 -27.957031 28.015625 -26.78125 L 28.015625 0.140625 L 25.015625 0.140625 L 11.625 -22.296875 C 10.789062 -23.691406 10.195312 -24.707031 9.84375 -25.34375 C 9.5 -25.988281 9.171875 -26.625 8.859375 -27.25 L 8.453125 -27.25 C 8.566406 -26.007812 8.644531 -23.773438 8.6875 -20.546875 C 8.738281 -17.328125 8.765625 -14.113281 8.765625 -10.90625 L 8.765625 -6 C 8.765625 -4.925781 8.800781 -4.140625 8.875 -3.640625 C 8.945312 -3.148438 9.066406 -2.757812 9.234375 -2.46875 C 9.398438 -2.1875 9.644531 -1.945312 9.96875 -1.75 C 10.300781 -1.5625 10.835938 -1.367188 11.578125 -1.171875 L 11.578125 0 L 2.8125 0 L 2.8125 -1.171875 C 3.800781 -1.429688 4.460938 -1.71875 4.796875 -2.03125 C 5.140625 -2.34375 5.363281 -2.785156 5.46875 -3.359375 C 5.570312 -3.941406 5.625 -4.820312 5.625 -6 L 5.625 -26.78125 C 5.625 -27.894531 5.582031 -28.703125 5.5 -29.203125 C 5.414062 -29.703125 5.28125 -30.09375 5.09375 -30.375 C 4.914062 -30.65625 4.675781 -30.878906 4.375 -31.046875 C 4.070312 -31.210938 3.550781 -31.398438 2.8125 -31.609375 L 2.8125 -32.796875 L 10.328125 -32.796875 Z M 22.203125 -13 "/></g></g></g><g fill="#000000" fill-opacity="1"><g transform="translate(307.051951, 51.67581)"><g/></g></g></svg>