<svg xmlns="http://www.w3.org/2000/svg" xmlns:xlink="http://www.w3.org/1999/xlink" width="500" zoomAndPan="magnify" viewBox="0 0 375 112.499997" height="150" preserveAspectRatio="xMidYMid meet" version="1.0"><defs><g/><clipPath id="46b7997d1f"><path d="M 132 4.328125 L 163 4.328125 L 163 91 L 132 91 Z M 132 4.328125 " clip-rule="nonzero"/></clipPath><clipPath id="8cc4a3ac0f"><path d="M 109.621094 21.09375 L 162.914062 21.09375 L 162.914062 107.371094 L 109.621094 107.371094 Z M 109.621094 21.09375 " clip-rule="nonzero"/></clipPath><clipPath id="6ff6bba5ab"><path d="M 162 4.328125 L 194 4.328125 L 194 91 L 162 91 Z M 162 4.328125 " clip-rule="nonzero"/></clipPath><clipPath id="9545564b70"><path d="M 162.664062 21.09375 L 216.078125 21.09375 L 216.078125 107.371094 L 162.664062 107.371094 Z M 162.664062 21.09375 " clip-rule="nonzero"/></clipPath><clipPath id="18d47a1c10"><path d="M 160 35.855469 L 165.914062 35.855469 L 165.914062 107.371094 L 160 107.371094 Z M 160 35.855469 " clip-rule="nonzero"/></clipPath></defs><g clip-path="url(#46b7997d1f)"><path fill="#000000" d="M 132.460938 4.367188 C 132.460938 4.367188 158.902344 6.488281 162.847656 37.929688 L 162.847656 90.765625 C 162.847656 90.765625 151.320312 73.78125 132.460938 74.503906 L 132.460938 4.367188 " fill-opacity="1" fill-rule="nonzero"/></g><path fill="#ffffff" d="M 125.304688 9.277344 C 125.304688 9.277344 155.203125 9.277344 162.847656 37.929688 L 162.847656 95.675781 C 162.847656 95.675781 148.605469 78.695312 125.304688 79.417969 L 125.304688 9.277344 " fill-opacity="1" fill-rule="nonzero"/><path fill="#000000" d="M 118.664062 11.582031 C 118.664062 11.582031 153.324219 11.582031 162.847656 37.929688 L 162.847656 97.980469 C 162.847656 97.980469 146.085938 81 118.664062 81.722656 L 118.664062 11.582031 " fill-opacity="1" fill-rule="nonzero"/><path fill="#ffffff" d="M 113.933594 18.375 C 113.933594 18.375 145.742188 16.613281 162.847656 37.929688 L 162.847656 105.441406 C 162.847656 105.441406 144.292969 88.457031 113.933594 89.183594 L 113.933594 18.375 " fill-opacity="1" fill-rule="nonzero"/><g clip-path="url(#8cc4a3ac0f)"><path fill="#fa9600" d="M 162.851562 37.910156 L 162.847656 107.65625 C 162.847656 107.65625 142.65625 90.671875 109.621094 91.394531 L 109.621094 21.253906 C 109.621094 21.253906 113.820312 21.300781 120.011719 21.984375 C 122.503906 22.261719 125.320312 22.640625 128.320312 23.164062 C 139.933594 25.183594 154.234375 29.347656 162.851562 37.910156 " fill-opacity="1" fill-rule="nonzero"/></g><path fill="#000000" d="M 128.320312 23.164062 L 128.320312 53.242188 L 124.164062 48.835938 L 120.011719 50.765625 L 120.011719 21.984375 C 122.503906 22.261719 125.320312 22.640625 128.320312 23.164062 " fill-opacity="1" fill-rule="nonzero"/><g clip-path="url(#6ff6bba5ab)"><path fill="#000000" d="M 193.238281 4.328125 C 193.238281 4.328125 166.796875 6.449219 162.847656 37.890625 L 162.847656 90.726562 C 162.847656 90.726562 174.378906 73.742188 193.238281 74.46875 L 193.238281 4.328125 " fill-opacity="1" fill-rule="nonzero"/></g><path fill="#ffffff" d="M 200.394531 9.242188 C 200.394531 9.242188 170.496094 9.242188 162.847656 37.890625 L 162.847656 95.640625 C 162.847656 95.640625 177.09375 78.65625 200.394531 79.378906 L 200.394531 9.242188 " fill-opacity="1" fill-rule="nonzero"/><path fill="#000000" d="M 207.035156 11.546875 C 207.035156 11.546875 172.375 11.546875 162.847656 37.890625 L 162.847656 97.945312 C 162.847656 97.945312 179.613281 80.960938 207.035156 81.683594 L 207.035156 11.546875 " fill-opacity="1" fill-rule="nonzero"/><path fill="#ffffff" d="M 211.765625 18.335938 C 211.765625 18.335938 179.957031 16.578125 162.847656 37.890625 L 162.847656 105.402344 C 162.847656 105.402344 181.40625 88.417969 211.765625 89.144531 L 211.765625 18.335938 " fill-opacity="1" fill-rule="nonzero"/><g clip-path="url(#9545564b70)"><path fill="#000000" d="M 216.078125 21.21875 C 216.078125 21.21875 179.207031 21.613281 162.84375 37.871094 L 162.847656 107.617188 C 162.847656 107.617188 183.042969 90.632812 216.078125 91.359375 L 216.078125 21.21875 " fill-opacity="1" fill-rule="nonzero"/></g><g clip-path="url(#18d47a1c10)"><path fill="#ffffff" d="M 164.070312 107.65625 L 161.625 107.65625 C 160.726562 107.65625 160 106.925781 160 106.027344 L 160 35.878906 L 165.699219 35.878906 L 165.699219 106.027344 C 165.699219 106.925781 164.972656 107.65625 164.070312 107.65625 " fill-opacity="1" fill-rule="nonzero"/></g><path fill="#ffffff" d="M 165.691406 35.902344 L 166.109375 34.996094 L 164.890625 35.878906 Z M 165.691406 35.902344 " fill-opacity="1" fill-rule="nonzero"/><path fill="#ffffff" d="M 160.007812 35.902344 L 159.589844 34.996094 L 160.808594 35.878906 Z M 160.007812 35.902344 " fill-opacity="1" fill-rule="nonzero"/><path fill="#ffffff" d="M 205.644531 47.066406 L 205.644531 49.234375 C 192.785156 50.421875 180.628906 55.085938 178.855469 55.792969 L 178.855469 53.476562 C 182.285156 52.175781 193.683594 48.136719 205.644531 47.066406 " fill-opacity="1" fill-rule="nonzero"/><path fill="#ffffff" d="M 205.644531 53.242188 L 205.644531 55.410156 C 192.785156 56.601562 180.628906 61.265625 178.855469 61.96875 L 178.855469 59.652344 C 182.285156 58.351562 193.683594 54.3125 205.644531 53.242188 " fill-opacity="1" fill-rule="nonzero"/><path fill="#ffffff" d="M 205.644531 59.449219 L 205.644531 61.617188 C 192.785156 62.804688 180.628906 67.46875 178.855469 68.171875 L 178.855469 65.859375 C 182.285156 64.558594 193.683594 60.519531 205.644531 59.449219 " fill-opacity="1" fill-rule="nonzero"/><g fill="#000000" fill-opacity="1"><g transform="translate(234.472972, 41.552773)"><g><path d="M 10.375 0.25 C 9.101562 0.25 7.945312 0.0390625 6.90625 -0.375 C 5.863281 -0.789062 4.96875 -1.4375 4.21875 -2.3125 C 3.476562 -3.195312 2.90625 -4.328125 2.5 -5.703125 C 2.09375 -7.078125 1.890625 -8.722656 1.890625 -10.640625 C 1.890625 -13.003906 2.25 -15.03125 2.96875 -16.71875 C 3.6875 -18.40625 4.710938 -19.691406 6.046875 -20.578125 C 7.390625 -21.460938 8.941406 -21.90625 10.703125 -21.90625 C 12.585938 -21.90625 14.171875 -21.488281 15.453125 -20.65625 C 16.742188 -19.832031 17.710938 -18.613281 18.359375 -17 C 19.003906 -15.382812 19.328125 -13.421875 19.328125 -11.109375 C 19.328125 -8.628906 18.957031 -6.535156 18.21875 -4.828125 C 17.476562 -3.128906 16.429688 -1.859375 15.078125 -1.015625 C 13.734375 -0.171875 12.164062 0.25 10.375 0.25 Z M 5.15625 -11.09375 C 5.15625 -7.84375 5.628906 -5.367188 6.578125 -3.671875 C 7.523438 -1.984375 8.90625 -1.140625 10.71875 -1.140625 C 11.875 -1.140625 12.851562 -1.503906 13.65625 -2.234375 C 14.457031 -2.972656 15.054688 -4.050781 15.453125 -5.46875 C 15.859375 -6.882812 16.0625 -8.539062 16.0625 -10.4375 C 16.0625 -12.738281 15.828125 -14.648438 15.359375 -16.171875 C 14.890625 -17.691406 14.25 -18.796875 13.4375 -19.484375 C 12.625 -20.171875 11.675781 -20.515625 10.59375 -20.515625 C 9.644531 -20.515625 8.828125 -20.289062 8.140625 -19.84375 C 7.460938 -19.394531 6.898438 -18.757812 6.453125 -17.9375 C 6.003906 -17.125 5.675781 -16.132812 5.46875 -14.96875 C 5.257812 -13.8125 5.15625 -12.519531 5.15625 -11.09375 Z M 5.15625 -11.09375 "/></g></g></g><g fill="#000000" fill-opacity="1"><g transform="translate(262.449301, 41.552773)"><g><path d="M 6.734375 -4.015625 C 6.734375 -3.390625 6.769531 -2.890625 6.84375 -2.515625 C 6.914062 -2.148438 7.019531 -1.859375 7.15625 -1.640625 C 7.300781 -1.421875 7.492188 -1.25 7.734375 -1.125 C 7.984375 -1.007812 8.363281 -0.894531 8.875 -0.78125 L 8.875 0 L 1.921875 0 L 1.921875 -0.78125 C 2.578125 -0.945312 3.015625 -1.132812 3.234375 -1.34375 C 3.453125 -1.550781 3.597656 -1.84375 3.671875 -2.21875 C 3.742188 -2.601562 3.78125 -3.1875 3.78125 -3.96875 L 3.78125 -17.6875 C 3.78125 -18.414062 3.75 -18.945312 3.6875 -19.28125 C 3.632812 -19.613281 3.546875 -19.867188 3.421875 -20.046875 C 3.304688 -20.234375 3.148438 -20.382812 2.953125 -20.5 C 2.753906 -20.613281 2.410156 -20.738281 1.921875 -20.875 L 1.921875 -21.65625 L 9.78125 -21.65625 C 12.257812 -21.65625 14.101562 -21.179688 15.3125 -20.234375 C 16.519531 -19.285156 17.125 -17.84375 17.125 -15.90625 C 17.125 -14.8125 16.929688 -13.820312 16.546875 -12.9375 C 16.171875 -12.0625 15.632812 -11.34375 14.9375 -10.78125 C 14.238281 -10.21875 13.414062 -9.816406 12.46875 -9.578125 C 11.519531 -9.335938 10.519531 -9.21875 9.46875 -9.21875 C 8.289062 -9.21875 7.378906 -9.238281 6.734375 -9.28125 Z M 6.734375 -10.59375 L 8.578125 -10.59375 C 9.773438 -10.59375 10.757812 -10.75 11.53125 -11.0625 C 12.3125 -11.375 12.90625 -11.890625 13.3125 -12.609375 C 13.726562 -13.335938 13.9375 -14.300781 13.9375 -15.5 C 13.9375 -16.40625 13.816406 -17.160156 13.578125 -17.765625 C 13.335938 -18.378906 13 -18.867188 12.5625 -19.234375 C 12.132812 -19.609375 11.625 -19.867188 11.03125 -20.015625 C 10.445312 -20.171875 9.804688 -20.25 9.109375 -20.25 C 8.054688 -20.25 7.265625 -20.226562 6.734375 -20.1875 Z M 6.734375 -10.59375 "/></g></g></g><g fill="#000000" fill-opacity="1"><g transform="translate(287.650185, 41.552773)"><g><path d="M 16.75 -21.65625 L 16.75 -16.859375 L 15.203125 -16.859375 C 15.035156 -17.378906 14.867188 -17.832031 14.703125 -18.21875 C 14.535156 -18.613281 14.359375 -18.941406 14.171875 -19.203125 C 13.992188 -19.472656 13.796875 -19.6875 13.578125 -19.84375 C 13.367188 -20 13.113281 -20.101562 12.8125 -20.15625 C 12.519531 -20.21875 12.164062 -20.25 11.75 -20.25 L 6.734375 -20.25 L 6.734375 -11.9375 L 10.140625 -11.9375 C 10.597656 -11.9375 10.957031 -12.003906 11.21875 -12.140625 C 11.488281 -12.273438 11.710938 -12.5 11.890625 -12.8125 C 12.066406 -13.132812 12.234375 -13.632812 12.390625 -14.3125 L 13.875 -14.3125 L 13.875 -8.21875 L 12.390625 -8.21875 C 12.242188 -8.851562 12.078125 -9.332031 11.890625 -9.65625 C 11.710938 -9.976562 11.5 -10.207031 11.25 -10.34375 C 11 -10.476562 10.628906 -10.546875 10.140625 -10.546875 L 6.734375 -10.546875 L 6.734375 -1.390625 L 11.671875 -1.390625 C 12.191406 -1.390625 12.613281 -1.4375 12.9375 -1.53125 C 13.257812 -1.625 13.535156 -1.773438 13.765625 -1.984375 C 13.992188 -2.203125 14.195312 -2.484375 14.375 -2.828125 C 14.5625 -3.179688 14.710938 -3.546875 14.828125 -3.921875 C 14.953125 -4.296875 15.125 -4.84375 15.34375 -5.5625 L 16.90625 -5.5625 L 16.609375 0 L 1.921875 0 L 1.921875 -0.78125 C 2.578125 -0.945312 3.015625 -1.132812 3.234375 -1.34375 C 3.453125 -1.550781 3.597656 -1.84375 3.671875 -2.21875 C 3.742188 -2.601562 3.78125 -3.1875 3.78125 -3.96875 L 3.78125 -17.6875 C 3.78125 -18.414062 3.75 -18.945312 3.6875 -19.28125 C 3.632812 -19.613281 3.546875 -19.867188 3.421875 -20.046875 C 3.304688 -20.234375 3.148438 -20.382812 2.953125 -20.5 C 2.753906 -20.613281 2.410156 -20.738281 1.921875 -20.875 L 1.921875 -21.65625 Z M 16.75 -21.65625 "/></g></g></g><g fill="#000000" fill-opacity="1"><g transform="translate(313.088963, 41.552773)"><g><path d="M 14.65625 -8.578125 C 15.039062 -7.941406 15.359375 -7.382812 15.609375 -6.90625 C 15.867188 -6.4375 16.140625 -5.90625 16.421875 -5.3125 L 16.625 -5.3125 C 16.570312 -5.957031 16.523438 -7.238281 16.484375 -9.15625 C 16.441406 -11.070312 16.421875 -12.804688 16.421875 -14.359375 L 16.421875 -17.6875 C 16.421875 -18.414062 16.398438 -18.945312 16.359375 -19.28125 C 16.316406 -19.625 16.238281 -19.882812 16.125 -20.0625 C 16.007812 -20.238281 15.851562 -20.382812 15.65625 -20.5 C 15.46875 -20.613281 15.128906 -20.738281 14.640625 -20.875 L 14.640625 -21.65625 L 20.34375 -21.65625 L 20.34375 -20.875 C 19.875 -20.75 19.539062 -20.628906 19.34375 -20.515625 C 19.144531 -20.410156 18.984375 -20.273438 18.859375 -20.109375 C 18.742188 -19.941406 18.65625 -19.6875 18.59375 -19.34375 C 18.53125 -19.007812 18.5 -18.457031 18.5 -17.6875 L 18.5 0.09375 L 16.515625 0.09375 L 7.671875 -14.71875 C 7.128906 -15.632812 6.738281 -16.304688 6.5 -16.734375 C 6.269531 -17.160156 6.054688 -17.578125 5.859375 -17.984375 L 5.578125 -17.984375 C 5.648438 -17.171875 5.703125 -15.695312 5.734375 -13.5625 C 5.773438 -11.4375 5.796875 -9.316406 5.796875 -7.203125 L 5.796875 -3.96875 C 5.796875 -3.257812 5.816406 -2.738281 5.859375 -2.40625 C 5.910156 -2.082031 5.988281 -1.820312 6.09375 -1.625 C 6.207031 -1.4375 6.375 -1.28125 6.59375 -1.15625 C 6.8125 -1.03125 7.160156 -0.90625 7.640625 -0.78125 L 7.640625 0 L 1.859375 0 L 1.859375 -0.78125 C 2.515625 -0.945312 2.953125 -1.132812 3.171875 -1.34375 C 3.390625 -1.550781 3.535156 -1.84375 3.609375 -2.21875 C 3.679688 -2.601562 3.71875 -3.1875 3.71875 -3.96875 L 3.71875 -17.6875 C 3.71875 -18.414062 3.6875 -18.945312 3.625 -19.28125 C 3.570312 -19.613281 3.484375 -19.867188 3.359375 -20.046875 C 3.242188 -20.234375 3.082031 -20.382812 2.875 -20.5 C 2.675781 -20.613281 2.335938 -20.738281 1.859375 -20.875 L 1.859375 -21.65625 L 6.828125 -21.65625 Z M 14.65625 -8.578125 "/></g></g></g><g fill="#000000" fill-opacity="1"><g transform="translate(233.329616, 86.353655)"><g><path d="M 1.921875 0 L 1.921875 -0.78125 C 2.578125 -0.945312 3.015625 -1.132812 3.234375 -1.34375 C 3.453125 -1.550781 3.597656 -1.84375 3.671875 -2.21875 C 3.742188 -2.601562 3.78125 -3.1875 3.78125 -3.96875 L 3.78125 -17.6875 C 3.78125 -18.414062 3.75 -18.945312 3.6875 -19.28125 C 3.632812 -19.613281 3.546875 -19.867188 3.421875 -20.046875 C 3.304688 -20.234375 3.148438 -20.382812 2.953125 -20.5 C 2.753906 -20.613281 2.410156 -20.738281 1.921875 -20.875 L 1.921875 -21.65625 L 10.59375 -21.65625 C 12.28125 -21.65625 13.628906 -21.472656 14.640625 -21.109375 C 15.660156 -20.753906 16.421875 -20.222656 16.921875 -19.515625 C 17.421875 -18.816406 17.671875 -17.910156 17.671875 -16.796875 C 17.671875 -15.878906 17.492188 -15.082031 17.140625 -14.40625 C 16.785156 -13.726562 16.320312 -13.164062 15.75 -12.71875 C 15.175781 -12.28125 14.441406 -11.867188 13.546875 -11.484375 L 13.546875 -11.34375 C 14.984375 -10.90625 16.070312 -10.234375 16.8125 -9.328125 C 17.550781 -8.429688 17.921875 -7.359375 17.921875 -6.109375 C 17.921875 -4.671875 17.597656 -3.492188 16.953125 -2.578125 C 16.316406 -1.671875 15.421875 -1.015625 14.265625 -0.609375 C 13.117188 -0.203125 11.726562 0 10.09375 0 Z M 9.515625 -11.9375 C 11.117188 -11.9375 12.347656 -12.328125 13.203125 -13.109375 C 14.054688 -13.890625 14.484375 -15.019531 14.484375 -16.5 C 14.484375 -17.226562 14.363281 -17.832031 14.125 -18.3125 C 13.882812 -18.789062 13.554688 -19.171875 13.140625 -19.453125 C 12.722656 -19.742188 12.226562 -19.945312 11.65625 -20.0625 C 11.082031 -20.1875 10.460938 -20.25 9.796875 -20.25 C 9.398438 -20.25 8.875 -20.238281 8.21875 -20.21875 C 7.5625 -20.195312 7.066406 -20.175781 6.734375 -20.15625 L 6.734375 -11.9375 Z M 6.734375 -1.5 C 7.515625 -1.425781 8.378906 -1.390625 9.328125 -1.390625 C 10.710938 -1.390625 11.785156 -1.5625 12.546875 -1.90625 C 13.316406 -2.257812 13.875 -2.773438 14.21875 -3.453125 C 14.5625 -4.140625 14.734375 -5 14.734375 -6.03125 C 14.734375 -7.050781 14.546875 -7.894531 14.171875 -8.5625 C 13.796875 -9.226562 13.21875 -9.722656 12.4375 -10.046875 C 11.65625 -10.378906 10.578125 -10.546875 9.203125 -10.546875 L 6.734375 -10.546875 Z M 6.734375 -1.5 "/></g></g></g><g fill="#000000" fill-opacity="1"><g transform="translate(259.942012, 86.353655)"><g><path d="M 10.375 0.25 C 9.101562 0.25 7.945312 0.0390625 6.90625 -0.375 C 5.863281 -0.789062 4.96875 -1.4375 4.21875 -2.3125 C 3.476562 -3.195312 2.90625 -4.328125 2.5 -5.703125 C 2.09375 -7.078125 1.890625 -8.722656 1.890625 -10.640625 C 1.890625 -13.003906 2.25 -15.03125 2.96875 -16.71875 C 3.6875 -18.40625 4.710938 -19.691406 6.046875 -20.578125 C 7.390625 -21.460938 8.941406 -21.90625 10.703125 -21.90625 C 12.585938 -21.90625 14.171875 -21.488281 15.453125 -20.65625 C 16.742188 -19.832031 17.710938 -18.613281 18.359375 -17 C 19.003906 -15.382812 19.328125 -13.421875 19.328125 -11.109375 C 19.328125 -8.628906 18.957031 -6.535156 18.21875 -4.828125 C 17.476562 -3.128906 16.429688 -1.859375 15.078125 -1.015625 C 13.734375 -0.171875 12.164062 0.25 10.375 0.25 Z M 5.15625 -11.09375 C 5.15625 -7.84375 5.628906 -5.367188 6.578125 -3.671875 C 7.523438 -1.984375 8.90625 -1.140625 10.71875 -1.140625 C 11.875 -1.140625 12.851562 -1.503906 13.65625 -2.234375 C 14.457031 -2.972656 15.054688 -4.050781 15.453125 -5.46875 C 15.859375 -6.882812 16.0625 -8.539062 16.0625 -10.4375 C 16.0625 -12.738281 15.828125 -14.648438 15.359375 -16.171875 C 14.890625 -17.691406 14.25 -18.796875 13.4375 -19.484375 C 12.625 -20.171875 11.675781 -20.515625 10.59375 -20.515625 C 9.644531 -20.515625 8.828125 -20.289062 8.140625 -19.84375 C 7.460938 -19.394531 6.898438 -18.757812 6.453125 -17.9375 C 6.003906 -17.125 5.675781 -16.132812 5.46875 -14.96875 C 5.257812 -13.8125 5.15625 -12.519531 5.15625 -11.09375 Z M 5.15625 -11.09375 "/></g></g></g><g fill="#000000" fill-opacity="1"><g transform="translate(287.918341, 86.353655)"><g><path d="M 10.375 0.25 C 9.101562 0.25 7.945312 0.0390625 6.90625 -0.375 C 5.863281 -0.789062 4.96875 -1.4375 4.21875 -2.3125 C 3.476562 -3.195312 2.90625 -4.328125 2.5 -5.703125 C 2.09375 -7.078125 1.890625 -8.722656 1.890625 -10.640625 C 1.890625 -13.003906 2.25 -15.03125 2.96875 -16.71875 C 3.6875 -18.40625 4.710938 -19.691406 6.046875 -20.578125 C 7.390625 -21.460938 8.941406 -21.90625 10.703125 -21.90625 C 12.585938 -21.90625 14.171875 -21.488281 15.453125 -20.65625 C 16.742188 -19.832031 17.710938 -18.613281 18.359375 -17 C 19.003906 -15.382812 19.328125 -13.421875 19.328125 -11.109375 C 19.328125 -8.628906 18.957031 -6.535156 18.21875 -4.828125 C 17.476562 -3.128906 16.429688 -1.859375 15.078125 -1.015625 C 13.734375 -0.171875 12.164062 0.25 10.375 0.25 Z M 5.15625 -11.09375 C 5.15625 -7.84375 5.628906 -5.367188 6.578125 -3.671875 C 7.523438 -1.984375 8.90625 -1.140625 10.71875 -1.140625 C 11.875 -1.140625 12.851562 -1.503906 13.65625 -2.234375 C 14.457031 -2.972656 15.054688 -4.050781 15.453125 -5.46875 C 15.859375 -6.882812 16.0625 -8.539062 16.0625 -10.4375 C 16.0625 -12.738281 15.828125 -14.648438 15.359375 -16.171875 C 14.890625 -17.691406 14.25 -18.796875 13.4375 -19.484375 C 12.625 -20.171875 11.675781 -20.515625 10.59375 -20.515625 C 9.644531 -20.515625 8.828125 -20.289062 8.140625 -19.84375 C 7.460938 -19.394531 6.898438 -18.757812 6.453125 -17.9375 C 6.003906 -17.125 5.675781 -16.132812 5.46875 -14.96875 C 5.257812 -13.8125 5.15625 -12.519531 5.15625 -11.09375 Z M 5.15625 -11.09375 "/></g></g></g><g fill="#000000" fill-opacity="1"><g transform="translate(315.89467, 86.353655)"><g><path d="M 6.71875 -11.859375 L 7.203125 -11.859375 C 7.597656 -11.859375 7.960938 -11.921875 8.296875 -12.046875 C 8.628906 -12.179688 9.003906 -12.421875 9.421875 -12.765625 C 9.835938 -13.117188 10.46875 -13.769531 11.3125 -14.71875 C 12.320312 -15.851562 13.015625 -16.671875 13.390625 -17.171875 C 13.847656 -17.773438 14.160156 -18.285156 14.328125 -18.703125 C 14.453125 -19.003906 14.515625 -19.300781 14.515625 -19.59375 C 14.515625 -20.007812 14.390625 -20.316406 14.140625 -20.515625 C 13.898438 -20.710938 13.570312 -20.832031 13.15625 -20.875 L 13.15625 -21.65625 L 20.0625 -21.65625 L 20.0625 -20.875 C 19.726562 -20.800781 19.394531 -20.671875 19.0625 -20.484375 C 18.738281 -20.296875 18.40625 -20.039062 18.0625 -19.71875 C 17.71875 -19.394531 17.210938 -18.863281 16.546875 -18.125 L 11.21875 -12.140625 L 16.984375 -3.75 C 17.597656 -2.851562 18.078125 -2.226562 18.421875 -1.875 C 18.773438 -1.519531 19.109375 -1.257812 19.421875 -1.09375 C 19.742188 -0.9375 20.085938 -0.832031 20.453125 -0.78125 L 20.453125 0 L 13.453125 0 L 13.453125 -0.78125 C 13.835938 -0.8125 14.117188 -0.882812 14.296875 -1 C 14.484375 -1.113281 14.578125 -1.285156 14.578125 -1.515625 C 14.578125 -1.710938 14.515625 -1.941406 14.390625 -2.203125 C 14.273438 -2.472656 14.082031 -2.800781 13.8125 -3.1875 L 10.125 -8.6875 C 9.6875 -9.34375 9.363281 -9.773438 9.15625 -9.984375 C 8.957031 -10.203125 8.742188 -10.359375 8.515625 -10.453125 C 8.285156 -10.554688 7.972656 -10.609375 7.578125 -10.609375 L 6.734375 -10.609375 L 6.734375 -3.96875 C 6.734375 -3.257812 6.757812 -2.738281 6.8125 -2.40625 C 6.863281 -2.082031 6.941406 -1.820312 7.046875 -1.625 C 7.160156 -1.4375 7.328125 -1.28125 7.546875 -1.15625 C 7.765625 -1.03125 8.113281 -0.90625 8.59375 -0.78125 L 8.59375 0 L 1.921875 0 L 1.921875 -0.78125 C 2.578125 -0.945312 3.015625 -1.132812 3.234375 -1.34375 C 3.453125 -1.550781 3.597656 -1.84375 3.671875 -2.21875 C 3.742188 -2.601562 3.78125 -3.1875 3.78125 -3.96875 L 3.78125 -17.6875 C 3.78125 -18.414062 3.75 -18.945312 3.6875 -19.28125 C 3.632812 -19.613281 3.546875 -19.867188 3.421875 -20.046875 C 3.304688 -20.234375 3.148438 -20.382812 2.953125 -20.5 C 2.753906 -20.613281 2.410156 -20.738281 1.921875 -20.875 L 1.921875 -21.65625 L 8.59375 -21.65625 L 8.59375 -20.875 C 8.132812 -20.757812 7.800781 -20.640625 7.59375 -20.515625 C 7.382812 -20.398438 7.21875 -20.253906 7.09375 -20.078125 C 6.976562 -19.910156 6.890625 -19.648438 6.828125 -19.296875 C 6.765625 -18.953125 6.734375 -18.414062 6.734375 -17.6875 Z M 6.71875 -11.859375 "/></g></g></g></svg>